<svg xmlns="http://www.w3.org/2000/svg" version="1.1" xmlns:xlink="http://www.w3.org/1999/xlink" xmlns:svgjs="http://svgjs.dev/svgjs" viewBox="0 0 8.395813512639052 7.953337310904569"><g transform="matrix(0.8537501741227006,0,0,0.8537501741227006,1.19553023059248,5.75413727774345)"><g transform="matrix(1,0,0,1,0,0)" clip-path="url(#SvgjsClipPath35578)"><g clip-path="url(#SvgjsClipPath35576213365d1-5794-4b2e-9786-2366a0896194)"><path d=" M 5.923277630601252 -3.186198400901708 L 6.119120890117443 -3.2910904497853624 C 6.182459033847959 -3.3300119808564026 6.232796472928104 -3.374251982011686 6.28165655920707 -3.418599427007055 C 6.375857946002199 -3.5040710017952206 6.462645707831415 -3.636361229900727 6.508873420028282 -3.762822629681583 C 6.634690156768627 -4.107260720036282 6.554322164384528 -4.42027148716592 6.091803293775657 -4.382048341055434 C 5.620205418679543 -4.3430999490243725 5.2236033439632426 -3.930569325015367 5.218795232119406 -3.5116457925212625 C 5.21637774571748 -3.300464924832838 5.112210942754402 -3.2292565198160483 5.060906509113487 -3.172150118810503 C 4.885638744973704 -3.028363399815829 4.588744553856923 -2.8105210140420924 4.24521973614295 -2.5647163688860566 L 4.24521973614295 -2.290492828027355 C 4.639323741577263 -2.59442459066975 4.988784831455966 -2.871549115210765 5.188146876734963 -3.059387808640573 C 5.491487698256886 -3.2453462348688804 5.452324418545652 -3.1091343066002466 5.726816569004569 -3.1427105066270236 C 5.810757069071515 -3.152971393355209 5.896900167860217 -3.1855000159411526 5.923277630601252 -3.186198400901708 L 5.923277630601252 -3.186198400901708 Z" fill="#201e1e" transform="matrix(1,0,0,1,0,0)" fill-rule="nonzero"></path></g><g clip-path="url(#SvgjsClipPath35576213365d1-5794-4b2e-9786-2366a0896194)"><path d=" M 3.1756968909699723 -2.1080263266018338 C 3.750145381988113 -1.7172262192501595 4.315380563718904 -1.3310999189422112 4.582459089211911 -1.1194086930133809 C 4.642493334859788 -1.0751955528181183 4.7000026502656524 -1.0308212468627298 4.762454382315463 -0.9867692724275958 C 4.880078526249273 -0.9037689059614022 5.059321712472222 -0.7477335891969581 5.17200343976209 -0.8686079092933587 C 5.257501875510279 -0.9602843658464746 5.2369532410938895 -1.048656924316953 5.140871587097262 -1.1260970720587142 C 5.1252922302848365 -1.1386948623087623 5.116401252517747 -1.1520984813594524 5.101385975865769 -1.1635143893685553 C 5.072268695202549 -1.1857015423462522 5.043715494699777 -1.207727529563818 5.014490770196469 -1.2301027092616614 C 4.9583245027916725 -1.2731608281760023 4.894583444660839 -1.3202480910935543 4.83323301197191 -1.36150652568646 C 4.520034218122124 -1.5761793181776689 3.8200913218838974 -2.010413597883984 3.1535634599123217 -2.424072382213889 L 3.1756968909699723 -2.1080263266018338 L 3.1756968909699723 -2.1080263266018338 Z" fill="#201e1e" transform="matrix(1,0,0,1,0,0)" fill-rule="nonzero"></path></g><g clip-path="url(#SvgjsClipPath35576213365d1-5794-4b2e-9786-2366a0896194)"><path d=" M 3.8408011220604146 -2.1080263266018338 C 3.266325770082253 -1.7172262192501595 2.7011174493114805 -1.3310999189422112 2.434012062858457 -1.1194086930133809 C 2.3740046781705995 -1.0751955528181183 2.3164953627647336 -1.0308212468627298 2.2540167697549047 -0.9867692724275958 C 2.1363926258210952 -0.9037689059614022 1.9571494395981437 -0.7477335891969581 1.8444945732682982 -0.8686079092933587 C 1.7590229984801322 -0.9602843658464746 1.7795179109764783 -1.048656924316953 1.8755995649731063 -1.1260970720587142 C 1.8912057827455535 -1.1386948623087623 1.9000698995526226 -1.1520984813594524 1.915112037164619 -1.1635143893685553 C 1.9442293178278411 -1.1857015423462522 1.9727556573705918 -1.207727529563818 2.0019803818738975 -1.2301027092616614 C 2.0581466492786937 -1.2731608281760023 2.1218877074095284 -1.3202480910935543 2.183265001058479 -1.36150652568646 C 2.4964637949082658 -1.5761793181776689 3.1963798301864688 -2.010413597883984 3.8629345531180674 -2.424072382213889 L 3.8408011220604146 -2.1080263266018338 L 3.8408011220604146 -2.1080263266018338 Z" fill="#201e1e" transform="matrix(1,0,0,1,0,0)" fill-rule="nonzero"></path></g><g clip-path="url(#SvgjsClipPath35576213365d1-5794-4b2e-9786-2366a0896194)"><path d=" M 1.9735346252112114 -3.2153962644449954 C 1.928596239095371 -3.2653307891248198 1.8768888910541328 -3.318998987247622 1.8462405356696914 -3.3891060929035337 C 1.8019736735543865 -3.4902644683442112 1.8218239230102176 -3.5386141963827704 1.7639654151240747 -3.6273896692535716 C 1.7211759058099483 -3.692984133625886 1.674599001132802 -3.7291658467747415 1.489526986585201 -3.876578795372308 L 1.1289991811776683 -4.153998790473558 L 0.7963261913123518 -4.377347673051686 C 0.74456512135107 -4.409365937397221 0.7594192322429172 -4.400072045229809 0.7480301851938345 -4.392685281223918 L 0.9186510032499088 -4.228484232612961 C 0.9768855645763528 -4.175299531770545 1.036463173903869 -4.123753349489435 1.0930860776290259 -4.070676092487105 C 1.1438532920695135 -4.023105332289164 1.4398879324656113 -3.7791272324145853 1.4290629655769769 -3.7432409898259644 C 1.4165994801270376 -3.7017945285129104 1.3404217975062833 -3.7738624842503867 1.326722707895358 -3.7858693333799627 C 1.232977957420593 -3.868198175845621 0.7261922246964171 -4.268292175364708 0.6567029211209962 -4.288813948821076 C 0.6613498672047019 -4.263860116961175 0.6580728300820882 -4.273852394089143 0.6761502561765055 -4.257413486556033 C 0.6875393032255883 -4.247018295027743 0.685712757944132 -4.24940892046965 0.6963765590726355 -4.236488798699345 L 0.7844267860228589 -4.152521437672379 C 0.8946373049907559 -4.0429287207849764 1.1644556484059445 -3.801421829232366 1.2757674667347176 -3.7117599446808587 C 1.2900037755460716 -3.7002903147517103 1.3099346078819671 -3.6846840969792654 1.3217265693313718 -3.674369488331039 C 1.3522137589556869 -3.6476965550297664 1.3374133699838833 -3.62209806012935 1.3257288523745636 -3.619788017567509 C 1.3182615054886084 -3.61828380380631 1.3260243229348005 -3.6084258314784474 1.2953222456303142 -3.621480258048858 L 1.1325716888605146 -3.7516484703126713 C 1.0899702062665386 -3.7874004081011856 0.6004829317961569 -4.176078499611168 0.5674708119298292 -4.17538011465061 C 0.5617494274452648 -4.152763186312573 0.6551181244797296 -4.075618509131047 0.6834564373023309 -4.04470154414639 L 0.7719095786528749 -3.9614594290400014 C 0.7863339141843775 -3.9483781415095676 0.8005970839557532 -3.9340612498181518 0.815504916767643 -3.921866373968425 C 0.845992106391957 -3.896885681148502 0.8707041896116663 -3.869004004646265 0.9021852347567723 -3.842357932305015 L 1.177859267456631 -3.606706730037075 C 1.1980318484327186 -3.589650020423473 1.2573677091200406 -3.5493317194313168 1.2409019406269084 -3.5166150701252255 C 1.239451448785752 -3.5156749365244746 1.2374368767841442 -3.51481538580379 1.236201272623159 -3.51443933236349 C 1.195104003790384 -3.5018684030734635 1.2601075270422246 -3.5120487069215827 1.2215083274914407 -3.5107325198805333 C 1.2121069914839417 -3.510410188360277 1.2156257772467498 -3.5104907712403404 1.2064930508394647 -3.513230589162527 C 1.1836343738612345 -3.520160716848053 0.7163611133285692 -3.8912986014640465 0.6631226905661103 -3.9309722394156896 C 0.6312118700606607 -3.9547710499946698 0.6012081777167319 -3.9801277962548918 0.5683840845705536 -4.003228221873315 C 0.5292745267793626 -4.030733844935252 0.49508052467209224 -4.066861836164065 0.47114740929300475 -4.06280583120083 C 0.47654646225731057 -4.038469801421423 0.7225659950935186 -3.784956060739237 0.7593655103228683 -3.7531526840738723 L 0.9160723510878459 -3.607190227317462 C 1.05040401215498 -3.486208463380975 1.2235228994930485 -3.3339336810195315 1.3788866922569563 -3.2494559617521586 C 1.4902790934657946 -3.1888576359438296 1.5011577822744715 -3.2073111154785456 1.6257120538938068 -3.19530426634897 C 1.7108075752416738 -3.1871116735424367 1.7645563562445397 -3.146578484870109 1.8268737834942388 -3.114828830124789 C 2.059113643839458 -2.9055819515579078 2.537453619900949 -2.5267618323757883 3.041123481262641 -2.1299180090192924 L 3.041123481262641 -2.4318083387000593 C 2.5944525770664066 -2.7545427733574495 2.1890401074630783 -3.048858312312175 1.9734271813711188 -3.2154768473250597 L 1.9735346252112114 -3.2153962644449954 Z" fill="#201e1e" transform="matrix(1,0,0,1,0,0)" fill-rule="nonzero"></path></g><g clip-path="url(#SvgjsClipPath35576213365d1-5794-4b2e-9786-2366a0896194)"><path d=" M 4.307966938752994 -4.903124104511009 C 4.700539869466082 -4.903124104511009 5.032030977090457 -4.652430764631075 5.137997464374971 -4.30887908595708 L 4.9652814914372225 -3.5329196728582293 C 4.806533217710614 -3.355315005196583 4.570935737362719 -3.242794443666846 4.30791321683295 -3.242794443666846 C 3.829868711331695 -3.242794443666846 3.4423187801426125 -3.614469547483268 3.4423187801426125 -4.072932413128907 C 3.442345641102633 -4.531449000694588 3.829895572291718 -4.903124104511009 4.307966938752994 -4.903124104511009 L 4.307966938752994 -4.903124104511009 Z" fill="#201e1e" transform="matrix(1,0,0,1,0,0)" fill-rule="nonzero"></path></g><g clip-path="url(#SvgjsClipPath35576213365d1-5794-4b2e-9786-2366a0896194)"><path d=" M 2.1239828622911983 -4.141884497503897 C 2.0587375903991636 -4.2154029450825306 1.9908868053850506 -4.290210718742192 1.9306376720569998 -4.367059925363482 C 1.8669234748861856 -4.448287468468263 1.813658191163705 -4.543724459424378 1.872994051851027 -4.64689740686666 C 1.9440412911076894 -4.7703503791251185 2.074827305451996 -4.737472564058898 2.1878850861821633 -4.765972042641627 C 2.309350347399035 -4.796539815146005 2.3947413393071377 -4.882844079694835 2.4610879105600505 -4.985614112736798 C 2.5175496485250797 -5.073073398566549 2.5982668333894545 -5.149224220227283 2.7135003518813563 -5.116937346281533 C 2.8009596377111086 -5.092440150741995 2.839102200941527 -5.0225747937262755 2.8608058566388377 -4.9426097157425 C 2.868246342564771 -4.915157814600606 2.8745049462497616 -4.885342148976827 2.8849538596980953 -4.85893782527577 C 2.8851687473782675 -4.85837374511532 2.8854373569784815 -4.857729082074806 2.8856791056186744 -4.857084419034291 C 2.969082386485192 -4.859179573915963 3.0415532566229877 -4.874651486888302 3.118859099564641 -4.910161676036623 C 3.199012204268566 -4.9469880522259935 3.266325770082251 -4.992436796582239 3.3552086867931368 -5.010541083636677 C 3.458381634235422 -5.031546354373431 3.553791764231512 -5.008257902034857 3.6449847235042436 -4.9585919869552475 C 3.6908363822608115 -4.933611294135324 3.726024239888874 -4.894179404823876 3.743080949502476 -4.844567211664309 C 3.7894161055394306 -4.709940080036939 3.687666788978283 -4.611494661558426 3.6150884750004 -4.514956371241434 C 3.611166774837271 -4.509799066917321 3.6050961978724296 -4.501606474110787 3.5990793428276318 -4.4927692182637395 C 3.62132021772537 -4.483770796656562 3.647563375666299 -4.476034840170393 3.6605640803166666 -4.472542915367608 C 3.7695658560836005 -4.443318190864301 3.8631763017582563 -4.379523410813422 3.904918233631546 -4.271005132326875 C 3.964549564879105 -4.115936810123203 3.8878078020979 -3.9480558099893126 3.8028197245901203 -3.8188814532462936 C 3.7430540885424555 -3.7280645474138643 3.655997717113025 -3.6204595415680454 3.575119366488524 -3.5464307357490057 C 3.495449759064983 -3.473503229290845 3.395903041225592 -3.4286185650950465 3.2862297414581247 -3.4447888630279433 C 3.1115797793988365 -3.470494801768445 3.0003754049101463 -3.6349644599796145 2.9080542853165183 -3.769349842966792 C 2.8857328275387157 -3.8018247436326913 2.8115965778795893 -3.912706786601123 2.7693442877658923 -3.94588007222758 C 2.6086620249177424 -3.817189212764945 2.4138126209223456 -3.8016367169125416 2.2584488281584383 -3.9470082325484794 C 2.201127539472724 -4.000649569711259 2.1564577629570985 -4.069843402726443 2.1239828622911983 -4.141884497503897 L 2.1239828622911983 -4.141884497503897 Z" fill="#201e1e" transform="matrix(1,0,0,1,0,0)" fill-rule="nonzero"></path></g><g clip-path="url(#SvgjsClipPath35576213365d1-5794-4b2e-9786-2366a0896194)"><path d=" M 3.9215183069247894 -5.225160154207844 L 4.4374367660562495 -5.020049863484261 L 3.763387835278674 -3.2842409049799013 L 3.175132810809524 -3.5181192838864255 L 3.1735480141682597 -3.5182267277265113 L 3.1735748751282804 -3.5187639469269403 L 3.1583447107961353 -3.524807662931759 L 3.1765564416906598 -3.571680038169142 L 3.2779565657715293 -5.377408075609266 L 3.9277500496497577 -5.335666143735976 Z" fill="#201e1e" transform="matrix(1,0,0,1,0,0)" fill-rule="nonzero"></path></g><g clip-path="url(#SvgjsClipPath35576213365d1-5794-4b2e-9786-2366a0896194)"><path d=" M 3.4389880210999553 -5.195720542024365 L 3.747539868866035 -5.175924014488576 L 3.662310042718062 -3.6581723294381225 L 3.3537581949519826 -3.6780225788939527 Z" fill="#ffcc29" transform="matrix(1,0,0,1,0,0)" fill-rule="nonzero"></path></g><g clip-path="url(#SvgjsClipPath35576213365d1-5794-4b2e-9786-2366a0896194)"><path d=" M 3.9293617072510427 -5.038046706698614 L 4.216666535640179 -4.923833904687527 L 3.6664197696013403 -3.506810819717407 L 3.379141802172226 -3.620996760768473 Z" fill="#ffcc29" transform="matrix(1,0,0,1,0,0)" fill-rule="nonzero"></path></g><g clip-path="url(#SvgjsClipPath35576213365d1-5794-4b2e-9786-2366a0896194)"><path d=" M 2.270267650567866 -4.234554809577805 C 1.7044952496366446 -4.875994534889372 2.217029227805406 -4.292305873623862 2.6046866028345743 -4.892890078742848 C 2.7415969160637634 -5.104984219071999 2.643930465425873 -4.68579207697768 2.8654528027225457 -4.68579207697768 C 3.275727106089752 -4.68579207697768 3.316502043402272 -4.942717159582586 3.563193100239013 -4.808358637555431 C 3.693710504983106 -4.7372845373387475 3.120175286605694 -4.440417207181986 3.6162703572413446 -4.3073480112358595 C 3.9786247079303347 -4.21013819691833 3.5239223766876955 -3.7312878626164325 3.4596978212764724 -3.672435499209496 C 3.127024831411156 -3.3678590735265868 2.9791821074532474 -4.333644891096831 2.662948025121041 -4.079593931214218 C 2.4014834402725147 -3.869648667686781 2.2709391745684 -4.233802702697206 2.270267650567866 -4.234554809577805 Z" fill="#00a859" transform="matrix(1,0,0,1,0,0)" fill-rule="nonzero"></path></g><g clip-path="url(#SvgjsClipPath35576213365d1-5794-4b2e-9786-2366a0896194)"><path d=" M 2.200133683951932 -4.060871842079288 C 1.7922500060266324 -4.523229546928032 2.1617225111212974 -4.102506330112494 2.441210800144199 -4.535397561817737 C 2.539871106302884 -4.688290146259673 2.469495391046756 -4.386131206978693 2.6291569374140917 -4.386131206978693 C 2.9249229682099758 -4.386131206978693 2.9872403954596747 -4.509557318277129 3.1650599508014916 -4.412723557399901 C 3.259127032796513 -4.361499706639049 2.956860649675447 -4.238046734380591 3.314487471400665 -4.1421531071041136 C 3.575683446648976 -4.072099723368243 3.400254516749065 -3.665129318083671 3.353973082632157 -3.6227427231698672 C 3.1142121534809397 -3.4032080969147813 2.7111365873994733 -4.132295134776252 2.483167619697663 -3.949183970310215 C 2.294711124187359 -3.797849321549519 2.2005634593122734 -4.06036148383888 2.200133683951932 -4.060871842079288 L 2.200133683951932 -4.060871842079288 Z" fill="#0f874f" transform="matrix(1,0,0,1,0,0)" fill-rule="nonzero"></path></g><g clip-path="url(#SvgjsClipPath35576213365d1-5794-4b2e-9786-2366a0896194)"><path d=" M 4.307966938752994 -4.7321272330146344 C 4.691568308818928 -4.7321272330146344 5.002564503946955 -4.437005865259266 5.002564503946955 -4.072959274088928 C 5.002564503946955 -3.7088858219585688 4.691568308818928 -3.4137644542032 4.307966938752994 -3.4137644542032 C 3.9243655686870587 -3.4137644542032 3.6133693735590318 -3.7088858219585688 3.6133693735590318 -4.072959274088928 C 3.613342512599009 -4.4369790042992445 3.9243655686870587 -4.7321272330146344 4.307966938752994 -4.7321272330146344 Z" fill="#ed3237" transform="matrix(1,0,0,1,0,0)" fill-rule="nonzero"></path></g><g clip-path="url(#SvgjsClipPath35576213365d1-5794-4b2e-9786-2366a0896194)"><path d=" M 4.307966938752994 -4.500344008989781 C 4.556699428551365 -4.500344008989781 4.758317794472164 -4.308986529797166 4.758317794472164 -4.072986135048948 C 4.758317794472164 -3.8369588793407106 4.556699428551365 -3.645601400148096 4.307966938752994 -3.645601400148096 C 4.059234448954623 -3.645601400148096 3.857616083033824 -3.8369588793407106 3.857616083033824 -4.072986135048948 C 3.857616083033824 -4.309013390757188 4.059234448954623 -4.500344008989781 4.307966938752994 -4.500344008989781 Z" fill="#bc3437" transform="matrix(1,0,0,1,0,0)" fill-rule="nonzero"></path></g><g clip-path="url(#SvgjsClipPath35576213365d1-5794-4b2e-9786-2366a0896194)"><path d=" M 2.9901145181819646 -4.447454778707598 L 3.259503086236812 -4.6095338114768625 L 3.9566255816727876 -3.284402070740029 L 3.6872370136179424 -3.1223230379707663 Z" fill="#ffcc29" transform="matrix(1,0,0,1,0,0)" fill-rule="nonzero"></path></g><g clip-path="url(#SvgjsClipPath35576213365d1-5794-4b2e-9786-2366a0896194)"><path d=" M 1.979954394656332 -4.315110828682051 L 2.766658191763752 -0.25 C 3.1256817834100845 -0.291715070913269 3.8699452636836584 -0.314385721171349 4.064042560798457 -0.7150706618109073 C 4.7870321607350625 -2.207761071161374 3.493999267223829 -4.576951466970876 1.979954394656332 -4.315110828682051 L 1.979954394656332 -4.315110828682051 Z" fill="#201e1e" transform="matrix(1,0,0,1,0,0)" fill-rule="nonzero"></path></g><g clip-path="url(#SvgjsClipPath35576213365d1-5794-4b2e-9786-2366a0896194)"><path d=" M 2.176227429532865 -4.169497564405921 L 2.9000228582701157 -0.429350630063035 C 3.2409958847820506 -0.46236274992936366 3.786730009537292 -0.5211345304562354 3.9155014518799898 -0.7870043127482758 C 4.174091914006225 -1.320892754134067 4.145135799103131 -1.9634875007265573 3.968068350641914 -2.5173336354082667 C 3.7472175373457794 -3.2080900833191675 3.193317680744025 -4.009271937878134 2.4315945764565283 -4.149781619750195 C 2.346848247588941 -4.165441559442685 2.2615109776008815 -4.172049355607955 2.176227429532865 -4.169497564405921 L 2.176227429532865 -4.169497564405921 Z" fill="#ffcc29" transform="matrix(1,0,0,1,0,0)" fill-rule="nonzero"></path></g><g clip-path="url(#SvgjsClipPath35576213365d1-5794-4b2e-9786-2366a0896194)"><path d=" M 2.5650129648829325 -2.5995013121137993 L 2.3016681128329086 -4.073039856968992 C 2.4634785360019573 -4.050073736150675 2.605734180275411 -4.001831451952201 2.7377020768606597 -3.9373651479007874 C 2.8707175508867433 -3.872415346568988 2.9933646943445575 -3.7907580281038635 3.1230762702880064 -3.652907581273925 C 2.9124057608399894 -3.7917787445846782 2.7480166855088832 -3.88528174641925 2.427055074212908 -3.950903071751585 L 2.5650129648829325 -2.5995013121137993 Z" fill="#fff688" transform="matrix(1,0,0,1,0,0)" fill-rule="nonzero"></path></g><g clip-path="url(#SvgjsClipPath35576213365d1-5794-4b2e-9786-2366a0896194)"><path d=" M 3.5696397306441536 -3.3669189399258386 L 3.5321955523742914 -3.441807296465564 C 3.015310098682059 -2.8632490785641465 2.7537112090334257 -1.8749537764959512 2.786266692579391 -1.0140600078093618 L 2.901876264511592 -0.43160695070483523 C 3.201268524910368 -0.461261450568486 3.514950816040537 -0.48608097762828084 3.760674878316511 -0.6307272473436409 C 3.1301675637336617 -1.4617784894464307 3.119396318765071 -2.4131399714851707 3.5696397306441536 -3.3669189399258386 Z" fill="#faa954" transform="matrix(1,0,0,1,0,0)" fill-rule="nonzero"></path></g><g clip-path="url(#SvgjsClipPath35576213365d1-5794-4b2e-9786-2366a0896194)"><path d=" M 5.197172159302161 -4.315110828682051 L 4.410495223154764 -0.25 C 3.909994955075599 -0.3388560557508642 3.574340398647903 -0.5972853521169688 3.380269962493127 -0.9979971537165504 C 2.657307223516542 -2.4906607021069953 3.6831272867346643 -4.576951466970876 5.197172159302161 -4.315110828682051 Z" fill="#201e1e" transform="matrix(1,0,0,1,0,0)" fill-rule="nonzero"></path></g><g clip-path="url(#SvgjsClipPath35576213365d1-5794-4b2e-9786-2366a0896194)"><path d=" M 5.001167734025843 -4.171028639127141 C 4.817170157879099 -4.179704729214061 4.635939260614563 -4.149593593030047 4.461477325275425 -4.078841824333619 C 3.951092223908376 -3.8719855712086444 3.6025175457103766 -3.3671606885660315 3.4361944812577274 -2.859166212640891 C 3.2464217987063795 -2.279560417298638 3.2608192732778623 -1.623185998215158 3.528757349491551 -1.0699845265739647 C 3.6890635588994 -0.7390574991100385 3.9450216469435344 -0.5426770203934197 4.280756786251292 -0.4485024945583129 L 5.001167734025843 -4.171028639127141 L 5.001167734025843 -4.171028639127141 Z" fill="#fff8af" transform="matrix(1,0,0,1,0,0)" fill-rule="nonzero"></path></g><g clip-path="url(#SvgjsClipPath35576213365d1-5794-4b2e-9786-2366a0896194)"><path d=" M 4.865304998237486 -4.073174161769099 C 4.7622932165553316 -4.058910991997723 4.660731926714334 -4.031781422376087 4.561373235595092 -3.9915168433039736 C 4.050988134228046 -3.7846337292189784 3.702413456030044 -3.2798088465763655 3.536090391577397 -2.771814370651223 C 3.422038755326438 -2.423427719173373 3.381774176254325 -2.0472936959933956 3.4259335945295435 -1.6825218589024789 C 3.4051969333930057 -1.999615491955371 3.4484430790274954 -2.3216784026122266 3.5485538770273375 -2.6227091815723074 C 3.714876941479984 -3.1229945619713004 4.063451619677983 -3.620110349087766 4.573836721045032 -3.8238238698902336 C 4.6583413012724275 -3.8575612356771396 4.744430678141086 -3.881897265456549 4.831648215330645 -3.8971005688286744 L 4.865304998237486 -4.073174161769099 L 4.865304998237486 -4.073174161769099 Z" fill="#fefefe" transform="matrix(1,0,0,1,0,0)" fill-rule="nonzero"></path></g></g><g><path d=" M 0.11325 0.39375000000000004 Q 0.1785 0.2715000000000001 0.2985 0.20325000000000004 Q 0.4185 0.135 0.5745 0.135 Q 0.7725 0.135 0.9075 0.24075000000000002 Q 1.0425 0.34650000000000003 1.0815000000000001 0.528 L 0.765 0.528 Q 0.7365 0.4680000000000001 0.68625 0.4365 Q 0.636 0.405 0.5700000000000001 0.405 Q 0.468 0.405 0.40725 0.47775 Q 0.34650000000000003 0.5505000000000001 0.34650000000000003 0.672 Q 0.34650000000000003 0.795 0.40725 0.86775 Q 0.468 0.9405000000000001 0.5700000000000001 0.9405000000000001 Q 0.636 0.9405000000000001 0.68625 0.909 Q 0.7365 0.8775000000000001 0.765 0.8175000000000001 L 1.0815000000000001 0.8175000000000001 Q 1.0425 0.9990000000000001 0.9075 1.1047500000000001 Q 0.7725 1.2105000000000001 0.5745 1.2105000000000001 Q 0.4185 1.2105000000000001 0.2985 1.14225 Q 0.1785 1.074 0.11325 0.9517500000000001 Q 0.048 0.8295000000000001 0.048 0.672 Q 0.048 0.516 0.11325 0.39375000000000004 M 1.513493408203125 0.381 L 1.513493408203125 0.5535000000000001 L 1.850993408203125 0.5535000000000001 L 1.850993408203125 0.7770000000000001 L 1.513493408203125 0.7770000000000001 L 1.513493408203125 0.9675 L 1.895993408203125 0.9675 L 1.895993408203125 1.203 L 1.219493408203125 1.203 L 1.219493408203125 0.14549999999999996 L 1.895993408203125 0.14549999999999996 L 1.895993408203125 0.381 L 1.513493408203125 0.381 M 2.135953857421875 1.12575 Q 2.017453857421875 1.038 2.008453857421875 0.8745 L 2.321953857421875 0.8745 Q 2.3264538574218747 0.93 2.354953857421875 0.9555 Q 2.383453857421875 0.9810000000000001 2.428453857421875 0.9810000000000001 Q 2.468953857421875 0.9810000000000001 2.495203857421875 0.9607500000000001 Q 2.521453857421875 0.9405000000000001 2.521453857421875 0.9045000000000001 Q 2.521453857421875 0.8580000000000001 2.477953857421875 0.8325 Q 2.434453857421875 0.807 2.336953857421875 0.7755000000000001 Q 2.2334538574218747 0.7410000000000001 2.169703857421875 0.70875 Q 2.105953857421875 0.6765000000000001 2.058703857421875 0.6142500000000001 Q 2.0114538574218748 0.552 2.0114538574218748 0.4515 Q 2.0114538574218748 0.34950000000000003 2.062453857421875 0.27675000000000005 Q 2.113453857421875 0.20400000000000007 2.203453857421875 0.1665000000000001 Q 2.293453857421875 0.129 2.407453857421875 0.129 Q 2.591953857421875 0.129 2.7022038574218747 0.21525000000000005 Q 2.812453857421875 0.3015000000000001 2.8199538574218748 0.4575 L 2.500453857421875 0.4575 Q 2.498953857421875 0.4095000000000001 2.471203857421875 0.38550000000000006 Q 2.4434538574218747 0.36150000000000004 2.399953857421875 0.36150000000000004 Q 2.366953857421875 0.36150000000000004 2.345953857421875 0.381 Q 2.3249538574218747 0.4005000000000001 2.3249538574218747 0.4365 Q 2.3249538574218747 0.4665 2.3482038574218747 0.4882500000000001 Q 2.371453857421875 0.51 2.405953857421875 0.52575 Q 2.440453857421875 0.5415000000000001 2.507953857421875 0.5655 Q 2.6084538574218747 0.6000000000000001 2.673703857421875 0.63375 Q 2.738953857421875 0.6675000000000001 2.786203857421875 0.7282500000000001 Q 2.833453857421875 0.789 2.833453857421875 0.8820000000000001 Q 2.833453857421875 0.9765 2.786203857421875 1.0515 Q 2.738953857421875 1.1265 2.649703857421875 1.1700000000000002 Q 2.5604538574218747 1.2135 2.438953857421875 1.2135 Q 2.2544538574218747 1.2135 2.135953857421875 1.12575 M 3.1844465332031247 0 L 3.166446533203125 0.3420000000000001 L 2.968446533203125 0.3420000000000001 L 2.947446533203125 0 L 3.1844465332031247 0 M 3.62541796875 0.381 L 3.62541796875 0.5535000000000001 L 3.96291796875 0.5535000000000001 L 3.96291796875 0.7770000000000001 L 3.62541796875 0.7770000000000001 L 3.62541796875 0.9675 L 4.00791796875 0.9675 L 4.00791796875 1.203 L 3.33141796875 1.203 L 3.33141796875 0.14549999999999996 L 4.00791796875 0.14549999999999996 L 4.00791796875 0.381 L 3.62541796875 0.381 M 4.82087841796875 1.0305 L 4.44587841796875 1.0305 L 4.3888784179687494 1.203 L 4.079878417968749 1.203 L 4.46537841796875 0.14549999999999996 L 4.80437841796875 0.14549999999999996 L 5.1883784179687495 1.203 L 4.87787841796875 1.203 L 4.82087841796875 1.0305 M 4.74737841796875 0.8055000000000001 L 4.63337841796875 0.4635 L 4.52087841796875 0.8055000000000001 L 4.74737841796875 0.8055000000000001 M 6.079385742187499 0.14549999999999996 L 6.079385742187499 0.37950000000000006 L 5.797385742187499 0.37950000000000006 L 5.797385742187499 1.203 L 5.5033857421875 1.203 L 5.5033857421875 0.37950000000000006 L 5.2243857421875 0.37950000000000006 L 5.2243857421875 0.14549999999999996 L 6.079385742187499 0.14549999999999996 M 6.283391601562499 1.12575 Q 6.164891601562499 1.038 6.1558916015625 0.8745 L 6.469391601562499 0.8745 Q 6.473891601562499 0.93 6.5023916015625 0.9555 Q 6.5308916015625 0.9810000000000001 6.5758916015625 0.9810000000000001 Q 6.6163916015624995 0.9810000000000001 6.6426416015625 0.9607500000000001 Q 6.6688916015625 0.9405000000000001 6.6688916015625 0.9045000000000001 Q 6.6688916015625 0.8580000000000001 6.6253916015625 0.8325 Q 6.5818916015625 0.807 6.4843916015625 0.7755000000000001 Q 6.3808916015624995 0.7410000000000001 6.3171416015625 0.70875 Q 6.2533916015625 0.6765000000000001 6.2061416015625 0.6142500000000001 Q 6.1588916015625 0.552 6.1588916015625 0.4515 Q 6.1588916015625 0.34950000000000003 6.209891601562499 0.27675000000000005 Q 6.260891601562499 0.20400000000000007 6.350891601562499 0.1665000000000001 Q 6.4408916015625 0.129 6.5548916015625 0.129 Q 6.7393916015625 0.129 6.8496416015624995 0.21525000000000005 Q 6.9598916015625 0.3015000000000001 6.9673916015624995 0.4575 L 6.6478916015625 0.4575 Q 6.6463916015625 0.4095000000000001 6.6186416015625 0.38550000000000006 Q 6.590891601562499 0.36150000000000004 6.5473916015624996 0.36150000000000004 Q 6.514391601562499 0.36150000000000004 6.493391601562499 0.381 Q 6.472391601562499 0.4005000000000001 6.472391601562499 0.4365 Q 6.472391601562499 0.4665 6.495641601562499 0.4882500000000001 Q 6.518891601562499 0.51 6.5533916015625 0.52575 Q 6.587891601562499 0.5415000000000001 6.655391601562499 0.5655 Q 6.7558916015624995 0.6000000000000001 6.821141601562499 0.63375 Q 6.8863916015625 0.6675000000000001 6.9336416015625 0.7282500000000001 Q 6.9808916015625 0.789 6.9808916015625 0.8820000000000001 Q 6.9808916015625 0.9765 6.9336416015625 1.0515 Q 6.8863916015625 1.1265 6.797141601562499 1.1700000000000002 Q 6.707891601562499 1.2135 6.586391601562499 1.2135 Q 6.401891601562499 1.2135 6.283391601562499 1.12575" fill="#201e1e" fill-rule="nonzero"></path></g><g></g></g><defs><clipPath id="SvgjsClipPath35578"><path d=" M 0.4711474092930037 -5.377408075609266 h 6.091089458757743 v 5.127408075609266 h -6.091089458757743 Z"></path></clipPath><clipPath id="SvgjsClipPath35576213365d1-5794-4b2e-9786-2366a0896194"><path d=" M 0.4711474092930037 -5.377408075609266 L 6.562236868050746 -5.377408075609266 L 6.562236868050746 -0.25 L 0.4711474092930037 -0.25 Z"></path></clipPath></defs></svg>